<svg id="Group_445" data-name="Group 445" xmlns="http://www.w3.org/2000/svg" width="198.408" height="64.902" viewBox="0 0 198.408 64.902">
  <g id="Group_442" data-name="Group 442">
    <path id="Path_555" data-name="Path 555" d="M198.408,56.13A8.77,8.77,0,0,1,189.64,64.9H8.771A8.772,8.772,0,0,1,0,56.13V8.771A8.772,8.772,0,0,1,8.771,0H189.64a8.77,8.77,0,0,1,8.769,8.771Z" fill="#161615"/>
    <path id="Path_556" data-name="Path 556" d="M73.426,76.4a32.13,32.13,0,0,1-2.905,5.425c-1.887,2.873-4.547,6.45-7.842,6.48-2.929.027-3.681-1.906-7.654-1.884s-4.8,1.918-7.733,1.891c-3.295-.03-5.815-3.261-7.7-6.133-5.277-8.032-5.828-17.459-2.574-22.47,2.313-3.562,5.961-5.646,9.391-5.646,3.493,0,5.689,1.916,8.576,1.916,2.8,0,4.509-1.919,8.547-1.919A11.4,11.4,0,0,1,72.121,58.6c-7.55,4.137-6.324,14.922,1.305,17.8" transform="translate(-21.687 -33.5)" fill="#fff"/>
    <path id="Path_557" data-name="Path 557" d="M90.566,33.791a9.805,9.805,0,0,0,2.177-7.261,10.592,10.592,0,0,0-6.838,3.678,9.1,9.1,0,0,0-2.234,7.082,8.94,8.94,0,0,0,6.895-3.5" transform="translate(-51.786 -16.44)" fill="#fff"/>
    <path id="Path_558" data-name="Path 558" d="M166,68.6l-7.559,22.249H161.9l2.256-6.832h7.319l2.321,6.832h3.557L169.764,68.6Zm1.794,3.658c.255.993.531,2.024.885,3.139l2.037,5.9h-5.8l2.009-5.938c.306-.963.6-2,.867-3.1" transform="translate(-98.185 -42.508)" fill="#fff"/>
    <path id="Path_559" data-name="Path 559" d="M219.938,83.761a6.3,6.3,0,0,0-5.352,2.567l-.134-2.213h-3.079l.018.283c.091,1.379.129,2.9.129,5.074v17.149h3.366v-8a5.911,5.911,0,0,0,4.6,1.977,6.94,6.94,0,0,0,5.1-2.168,9.2,9.2,0,0,0,2.252-6.475,8.955,8.955,0,0,0-1.956-5.912,6.4,6.4,0,0,0-4.947-2.28m-.839,2.787c3,0,4.344,2.78,4.344,5.535,0,3.553-1.714,5.76-4.472,5.76a4.081,4.081,0,0,1-3.966-3.124,4.3,4.3,0,0,1-.119-1.09V90.922a5.063,5.063,0,0,1,.107-.831c.017-.092.035-.184.048-.273a4.263,4.263,0,0,1,4.058-3.27" transform="translate(-130.987 -51.906)" fill="#fff"/>
    <path id="Path_560" data-name="Path 560" d="M265.519,83.761a6.3,6.3,0,0,0-5.352,2.567l-.134-2.213h-3.078l.017.283c.092,1.38.13,2.9.13,5.074v17.149h3.366v-8a5.909,5.909,0,0,0,4.6,1.977,6.948,6.948,0,0,0,5.1-2.168,9.207,9.207,0,0,0,2.251-6.475,8.955,8.955,0,0,0-1.957-5.912,6.4,6.4,0,0,0-4.947-2.28m-.838,2.787c3,0,4.343,2.78,4.343,5.535,0,3.553-1.715,5.76-4.471,5.76a4.081,4.081,0,0,1-3.966-3.124,4.3,4.3,0,0,1-.119-1.09V90.922a4.955,4.955,0,0,1,.107-.834c.017-.091.033-.181.049-.27a4.26,4.26,0,0,1,4.057-3.27" transform="translate(-159.234 -51.906)" fill="#fff"/>
    <path id="Path_561" data-name="Path 561" d="M323.519,77.445c-3.142-1.217-4.148-2.173-4.148-3.941,0-1.489,1.182-2.99,3.826-2.99a7.651,7.651,0,0,1,3.952.992l.285.176.95-2.809-.188-.11a9.757,9.757,0,0,0-4.9-1.1C319,67.663,316,70.2,316,73.825c0,2.926,1.878,4.971,5.908,6.436,2.857,1.068,3.92,2.162,3.92,4.037,0,2.122-1.64,3.439-4.279,3.439a9.212,9.212,0,0,1-4.852-1.376l-.292-.187-.9,2.874.166.11a11.53,11.53,0,0,0,5.689,1.463c5.786,0,7.837-3.528,7.837-6.549,0-3.115-1.645-5.035-5.678-6.627" transform="translate(-195.517 -41.93)" fill="#fff"/>
    <path id="Path_562" data-name="Path 562" d="M358.123,74.613l-3.3,1.037v2.8H352.4v2.69h2.417v8.241a6.3,6.3,0,0,0,1.166,4.271,4.315,4.315,0,0,0,3.257,1.279,7.919,7.919,0,0,0,2.6-.4l.189-.067-.161-2.7-.323.1a5.069,5.069,0,0,1-1.566.181c-1.3,0-1.862-.825-1.862-2.763V81.136h4.061v-2.69h-4.061Z" transform="translate(-218.383 -46.237)" fill="#fff"/>
    <path id="Path_563" data-name="Path 563" d="M387.02,83.761c-4.71,0-8,3.516-8,8.546,0,4.881,3.183,8.289,7.741,8.289h.031c3.854,0,8-2.684,8-8.579a8.508,8.508,0,0,0-2.145-5.954,7.491,7.491,0,0,0-5.627-2.3m-.1,2.658c3.028,0,4.407,2.952,4.407,5.7,0,3.374-1.881,5.824-4.471,5.824h-.033c-2.553,0-4.406-2.408-4.406-5.727,0-2.883,1.393-5.794,4.5-5.794" transform="translate(-234.877 -51.906)" fill="#fff"/>
    <path id="Path_564" data-name="Path 564" d="M433.949,83.917l-.2-.051a3.244,3.244,0,0,0-.837-.1,4.8,4.8,0,0,0-4.221,2.71l-.1-2.356H425.57l.019.283c.09,1.333.127,2.828.127,4.847l-.031,11h3.366V91.663a8.68,8.68,0,0,1,.093-1.3c.38-2.06,1.77-3.392,3.542-3.392a8.618,8.618,0,0,1,.9.056l.36.037Z" transform="translate(-263.724 -51.906)" fill="#fff"/>
    <path id="Path_565" data-name="Path 565" d="M455.1,83.677c-4.481,0-7.611,3.581-7.611,8.707,0,4.937,3.114,8.128,7.934,8.128a12.915,12.915,0,0,0,5.33-1.022l.2-.091-.647-2.508-.281.113a10.43,10.43,0,0,1-4.218.754,4.68,4.68,0,0,1-5.042-4.881l10.866.033.044-.215a7.523,7.523,0,0,0,.1-1.405c0-3.512-1.748-7.613-6.677-7.613m-.224,2.561a3.321,3.321,0,0,1,2.471.943,4.79,4.79,0,0,1,1.16,3.134H450.83c.313-1.944,1.529-4.076,4.047-4.076" transform="translate(-277.307 -51.854)" fill="#fff"/>
    <path id="Path_566" data-name="Path 566" d="M158.44,28.274a24.544,24.544,0,0,1,3.23-.218,7.207,7.207,0,0,1,4.74,1.3,4.608,4.608,0,0,1,1.666,3.8,5.331,5.331,0,0,1-1.683,4.093,7.814,7.814,0,0,1-5.192,1.516,23.436,23.436,0,0,1-2.761-.125Zm1.528,9.327a10.911,10.911,0,0,0,1.528.062c3.228.015,4.982-1.625,4.982-4.468.017-2.515-1.545-4.062-4.739-4.062a9.6,9.6,0,0,0-1.771.141Z" transform="translate(-98.184 -17.386)" fill="#fff"/>
    <path id="Path_567" data-name="Path 567" d="M191.45,43.519a3.8,3.8,0,0,1-4.027-3.89,3.9,3.9,0,0,1,4.166-4.015,3.765,3.765,0,0,1,4.045,3.875,3.914,3.914,0,0,1-4.165,4.031Zm.052-1.031a2.691,2.691,0,0,0,2.552-2.953,2.567,2.567,0,1,0-5.087.047,2.647,2.647,0,0,0,2.517,2.906Z" transform="translate(-116.145 -22.07)" fill="#fff"/>
    <path id="Path_568" data-name="Path 568" d="M212.823,36.065l1.128,3.828c.225.844.451,1.64.607,2.422h.052c.191-.766.469-1.578.747-2.406l1.371-3.844h1.285l1.3,3.781c.312.891.555,1.7.746,2.469h.052a20.93,20.93,0,0,1,.642-2.453l1.2-3.8h1.511l-2.708,7.562h-1.389l-1.284-3.609a24.882,24.882,0,0,1-.747-2.5H217.3a20.859,20.859,0,0,1-.764,2.516l-1.354,3.593H213.8l-2.535-7.562Z" transform="translate(-130.917 -22.349)" fill="#fff"/>
    <path id="Path_569" data-name="Path 569" d="M247.257,37.833c0-.8-.018-1.422-.07-2.047h1.355l.086,1.235h.035a3.183,3.183,0,0,1,2.777-1.406,2.876,2.876,0,0,1,2.969,3.219v4.515h-1.527V38.988c0-1.219-.5-2.249-1.945-2.249a2.18,2.18,0,0,0-2.048,1.406,1.854,1.854,0,0,0-.1.641v4.562h-1.528Z" transform="translate(-153.18 -22.07)" fill="#fff"/>
    <rect id="Rectangle_80" data-name="Rectangle 80" width="1.528" height="11.092" transform="translate(103.711 10.185)" fill="#fff"/>
    <path id="Path_570" data-name="Path 570" d="M285.817,43.519a3.8,3.8,0,0,1-4.027-3.89,3.9,3.9,0,0,1,4.166-4.015A3.765,3.765,0,0,1,290,39.489a3.915,3.915,0,0,1-4.166,4.031Zm.051-1.031a2.691,2.691,0,0,0,2.553-2.953,2.567,2.567,0,1,0-5.087.047,2.648,2.648,0,0,0,2.518,2.906Z" transform="translate(-174.624 -22.07)" fill="#fff"/>
    <path id="Path_571" data-name="Path 571" d="M313.295,41.536a11.444,11.444,0,0,0,.122,1.812h-1.372l-.139-.953h-.051a3.23,3.23,0,0,1-2.569,1.125,2.29,2.29,0,0,1-2.569-2.172c0-1.828,1.8-2.828,5.051-2.812V38.38c0-.624-.19-1.765-1.909-1.749a4.387,4.387,0,0,0-2.2.562l-.348-.921a5.916,5.916,0,0,1,2.778-.656c2.586,0,3.211,1.577,3.211,3.093ZM311.8,39.489c-1.667-.031-3.559.234-3.559,1.7a1.277,1.277,0,0,0,1.424,1.312,2.119,2.119,0,0,0,2.065-1.266,1.263,1.263,0,0,0,.07-.438Z" transform="translate(-190.07 -22.07)" fill="#fff"/>
    <path id="Path_572" data-name="Path 572" d="M336.719,26.782v9.139c0,.672.019,1.438.07,1.953h-1.371l-.069-1.312h-.035a3.144,3.144,0,0,1-2.847,1.484,3.605,3.605,0,0,1-3.611-3.843,3.77,3.77,0,0,1,3.767-4.062,2.89,2.89,0,0,1,2.535,1.141h.034v-4.5Zm-1.527,6.609a2.279,2.279,0,0,0-.07-.594,2.208,2.208,0,0,0-2.2-1.578c-1.58,0-2.518,1.25-2.518,2.906a2.508,2.508,0,0,0,2.483,2.811,2.272,2.272,0,0,0,2.239-1.64,2.13,2.13,0,0,0,.07-.594Z" transform="translate(-203.79 -16.597)" fill="#fff"/>
    <path id="Path_573" data-name="Path 573" d="M368.305,43.519a3.8,3.8,0,0,1-4.027-3.89,3.9,3.9,0,0,1,4.167-4.015,3.765,3.765,0,0,1,4.045,3.875,3.915,3.915,0,0,1-4.165,4.031Zm.053-1.031a2.69,2.69,0,0,0,2.551-2.953,2.632,2.632,0,0,0-2.517-2.89c-1.789,0-2.569,1.5-2.569,2.937a2.647,2.647,0,0,0,2.516,2.906Z" transform="translate(-225.741 -22.07)" fill="#fff"/>
    <path id="Path_574" data-name="Path 574" d="M390.827,37.833c0-.8-.018-1.422-.07-2.047h1.354l.088,1.235h.034a3.183,3.183,0,0,1,2.777-1.406,2.876,2.876,0,0,1,2.969,3.219v4.515h-1.528V38.988c0-1.219-.5-2.249-1.945-2.249a2.182,2.182,0,0,0-2.049,1.406,1.872,1.872,0,0,0-.1.641v4.562h-1.527Z" transform="translate(-242.15 -22.07)" fill="#fff"/>
    <path id="Path_575" data-name="Path 575" d="M426.238,31.3v1.812h2.187V34.16h-2.187v4.078c0,.937.3,1.468,1.146,1.468a3.166,3.166,0,0,0,.885-.094l.069,1.047a4.588,4.588,0,0,1-1.354.188,2.314,2.314,0,0,1-1.65-.578,2.745,2.745,0,0,1-.59-1.985V34.16h-1.3V33.114h1.3v-1.39Z" transform="translate(-262.405 -19.398)" fill="#fff"/>
    <path id="Path_576" data-name="Path 576" d="M441.064,26.782h1.527V31.5h.035a2.6,2.6,0,0,1,1.094-.969,3.228,3.228,0,0,1,1.562-.391c1.128,0,2.933.625,2.933,3.234v4.5h-1.527V33.531c0-1.234-.5-2.25-1.945-2.25a2.2,2.2,0,0,0-2.049,1.375,1.508,1.508,0,0,0-.1.656v4.562h-1.527Z" transform="translate(-273.325 -16.597)" fill="#fff"/>
    <path id="Path_577" data-name="Path 577" d="M466.277,39.776a2.561,2.561,0,0,0,2.865,2.625,6.367,6.367,0,0,0,2.327-.375l.278.969a7.514,7.514,0,0,1-2.813.485c-2.57,0-4.132-1.547-4.132-3.812a3.85,3.85,0,0,1,3.957-4.094,3.31,3.31,0,0,1,3.455,3.562,3.176,3.176,0,0,1-.051.656Zm4.462-.984a2.028,2.028,0,0,0-2.1-2.234,2.378,2.378,0,0,0-2.344,2.234Z" transform="translate(-288.035 -22.044)" fill="#fff"/>
  </g>
</svg>
